<?xml version="1.0" encoding="UTF-8" standalone="no"?>
<!DOCTYPE svg PUBLIC "-//W3C//DTD SVG 1.1//EN"
 "http://www.w3.org/Graphics/SVG/1.1/DTD/svg11.dtd">
<!-- Generated by graphviz version 2.40.1 (20161225.0304)
 -->
<!-- Title: finite_state_machine Pages: 1 -->
<svg width="298pt" height="90pt"
 viewBox="0.00 0.00 298.09 90.50" xmlns="http://www.w3.org/2000/svg" xmlns:xlink="http://www.w3.org/1999/xlink">
<g id="graph0" class="graph" transform="scale(1 1) rotate(0) translate(4 86.496)">
<title>finite_state_machine</title>
<polygon fill="#ffffff" stroke="transparent" points="-4,4 -4,-86.496 294.0879,-86.496 294.0879,4 -4,4"/>
<!-- start -->
<g id="node1" class="node">
<title>start</title>
<ellipse fill="#ffffff" stroke="#ffffff" cx="1.8" cy="-26.748" rx="1.8" ry="1.8"/>
</g>
<!-- q1 -->
<g id="node3" class="node">
<title>q1</title>
<ellipse fill="none" stroke="#000000" cx="63.348" cy="-26.748" rx="22.9987" ry="22.9987"/>
<text text-anchor="middle" x="63.348" y="-23.048" font-family="Times,serif" font-size="14.00" fill="#000000">q1</text>
</g>
<!-- start&#45;&gt;q1 -->
<g id="edge1" class="edge">
<title>start&#45;&gt;q1</title>
<path fill="none" stroke="#000000" d="M3.8478,-26.748C8.2235,-26.748 19.0023,-26.748 30.2025,-26.748"/>
<polygon fill="#000000" stroke="#000000" points="30.4353,-30.2481 40.4353,-26.748 30.4352,-23.2481 30.4353,-30.2481"/>
</g>
<!-- q2 -->
<g id="node2" class="node">
<title>q2</title>
<ellipse fill="none" stroke="#000000" cx="158.8439" cy="-26.748" rx="22.9609" ry="22.9609"/>
<ellipse fill="none" stroke="#000000" cx="158.8439" cy="-26.748" rx="26.9983" ry="26.9983"/>
<text text-anchor="middle" x="158.8439" y="-23.048" font-family="Times,serif" font-size="14.00" fill="#000000">q2</text>
</g>
<!-- q3 -->
<g id="node4" class="node">
<title>q3</title>
<ellipse fill="none" stroke="#000000" cx="267.3399" cy="-26.748" rx="22.9987" ry="22.9987"/>
<text text-anchor="middle" x="267.3399" y="-23.048" font-family="Times,serif" font-size="14.00" fill="#000000">q3</text>
</g>
<!-- q2&#45;&gt;q3 -->
<g id="edge4" class="edge">
<title>q2&#45;&gt;q3</title>
<path fill="none" stroke="#000000" d="M183.5213,-37.2729C189.9394,-39.5351 196.9261,-41.5921 203.5919,-42.748 213.6638,-44.4945 216.5481,-44.6492 226.5919,-42.748 230.0573,-42.092 233.6053,-41.1481 237.0921,-40.0422"/>
<polygon fill="#000000" stroke="#000000" points="238.417,-43.2851 246.6373,-36.6011 236.0429,-36.7 238.417,-43.2851"/>
<text text-anchor="middle" x="215.0919" y="-47.548" font-family="Times,serif" font-size="14.00" fill="#000000">1</text>
</g>
<!-- q2&#45;&gt;q3 -->
<g id="edge5" class="edge">
<title>q2&#45;&gt;q3</title>
<path fill="none" stroke="#000000" d="M185.5471,-24.5676C198.0162,-23.8055 213.0617,-23.2506 226.5919,-23.748 229.135,-23.8415 231.7655,-23.9677 234.409,-24.1156"/>
<polygon fill="#000000" stroke="#000000" points="234.3064,-27.6162 244.5118,-24.7704 234.7592,-20.6308 234.3064,-27.6162"/>
<text text-anchor="middle" x="215.0919" y="-27.548" font-family="Times,serif" font-size="14.00" fill="#000000">0</text>
</g>
<!-- q1&#45;&gt;q2 -->
<g id="edge3" class="edge">
<title>q1&#45;&gt;q2</title>
<path fill="none" stroke="#000000" d="M86.4649,-26.748C97.0529,-26.748 109.8661,-26.748 121.7512,-26.748"/>
<polygon fill="#000000" stroke="#000000" points="121.8775,-30.2481 131.8775,-26.748 121.8774,-23.2481 121.8775,-30.2481"/>
<text text-anchor="middle" x="109.096" y="-30.548" font-family="Times,serif" font-size="14.00" fill="#000000">1</text>
</g>
<!-- q1&#45;&gt;q1 -->
<g id="edge2" class="edge">
<title>q1&#45;&gt;q1</title>
<path fill="none" stroke="#000000" d="M55.9963,-48.5475C55.1943,-58.6603 57.6449,-67.496 63.348,-67.496 67.0015,-67.496 69.3203,-63.8698 70.3041,-58.6047"/>
<polygon fill="#000000" stroke="#000000" points="73.8039,-58.6774 70.6997,-48.5475 66.8093,-58.4022 73.8039,-58.6774"/>
<text text-anchor="middle" x="63.348" y="-71.296" font-family="Times,serif" font-size="14.00" fill="#000000">0</text>
</g>
<!-- q3&#45;&gt;q2 -->
<g id="edge6" class="edge">
<title>q3&#45;&gt;q2</title>
<path fill="none" stroke="#000000" d="M248.7332,-13.5909C242.0676,-9.6157 234.2916,-5.771 226.5919,-3.748 216.7053,-1.1504 213.5275,-1.3441 203.5919,-3.748 199.3894,-4.7648 195.1391,-6.2483 191.0165,-7.98"/>
<polygon fill="#000000" stroke="#000000" points="189.2634,-4.937 181.7117,-12.3683 192.2493,-11.2683 189.2634,-4.937"/>
<text text-anchor="middle" x="215.0919" y="-7.548" font-family="Times,serif" font-size="14.00" fill="#000000">0,1</text>
</g>
</g>
</svg>
